# xmcd
#
# Track frame offsets:
#	150
#	14248
#	26053
#	37486
#	49246
#	64796
#	79042
#	94081
#	106323
#	116803
#	129368
#	143758
#	157621
#	169796
#	181711
#	195308
#	212651
#	227096
#	240863
#	253006
#	266076
#	281726
#	294712
#	309113
#
# Disc length: 4323 seconds
#
# Revision: 0
# Processed by: cddbd v1.5.2PL0 Copyright (c) Steve Scherf et al.
# Submitted via: EasyCDDAExtractor 16.0.6.1
#
DISCID=5110e118
DTITLE=Συλλογικός δίσκος - Οι μεγάλες επιτυχίες του Αντώνη Ρεπάνη
DYEAR=1995
DGENRE=Λαϊκή
TTITLE0=Ρεπάνης Αντώνης - Η διπρόσωπη [Ε. Παπαγιαννοπούλου]
TTITLE1=Ρεπάνης Αντώνης - Είναι η σκέψη μου τρελλή [Μ. Τουτουμτζή]
TTITLE2=Διονυσίου Στράτος - Ένας αετός γκρεμίστηκε [Ε. Παπαγιαννοπούλου]
TTITLE3=Ρεπάνης Αντώνης - Γιατί κοντά μου κάθεσαι ακόμα [Μ. Τουτουμτζή]
TTITLE4=Διονυσίου Στράτος - Άστε με απόψε μοναχό [Μ. Τουτουμτζή]
TTITLE5=Ρεπάνης Αντώνης - Πριν γνωρίσω τον έρωτα [Η. Παπασιδέρη]
TTITLE6=Διονυσίου Στράτος - Ο παλιατζής [Δ. Γκούτη]
TTITLE7=Διονυσίου Στράτος - Αγάπη μου επικίνδυνη [Δ. Γκούτη]
TTITLE8=Ρεπάνης Αντώνης - Δυό γυναίκες δυό αγάπες [Κ. Κατσίπης]
TTITLE9=Γαβαλάς Πάνος - Πού να γυρνάς, πού να γυρνάς [Ν. Γκούμα]
TTITLE10=Μυτιληναίος Λευτέρης - Ποια είσαι εσύ [Π. Καμηλιέρη]
TTITLE11=Ρεπάνης Αντώνης - Τα μάτια σου, τα μάτια σου [Κ. Τσιριγώτη]
TTITLE12=Διονυσίου Στράτος - Τ' αγκάθια της καρδιάς σου [Μ. Τουτουμτζή]
TTITLE13=Ρεπάνης Αντώνης - Ανοίχτε πόρτες τ' ουρανού [Δ. Γκούτη]
TTITLE14=Ρεπάνης Αντώνης - Στο σταυροδρόμι [Β. Βασιλειάδη-Δ. Γκούτη]
TTITLE15=Ρεπάνης Αντώνης - Γιατί στα μάτια με φιλάς [Σ. Μακρυδάκη-Δ. Γκούτη]
TTITLE16=Ρεπάνης Αντώνης - Όλος ο κόσμος με μισεί [Μ. Μπακάλη-Κ. Βίρβου]
TTITLE17=Ρεπάνης Αντώνης - Η γυναίκα μου γκρινιάζει [Θ. Δερβενιώτη-Ν. Καρανικό
TTITLE17=λα]
TTITLE18=Ρεπάνης Αντώνης - Έχω μια μεγάλη αγάπη [Γ. Μητσάκη]
TTITLE19=Ρεπάνης Αντώνης-Ίμβρου Σόνια - Εσύ γλυκειά μου μόνο [4-2-1964, Β. Τσι
TTITLE19=τσάνη]
TTITLE20=Ρεπάνης Αντώνης - Το μπαγλαμαδάκι [Μ. Χιώτη]
TTITLE21=Ρεπάνης Αντώνης - Γιατί γλυκειά μου κλαις [Α. Καλδάρα]
TTITLE22=Ρεπάνης Αντώνης - Σού 'δωσα διαζύγιο [Μ. Βαμβακάρη]
TTITLE23=Ρεπάνης Αντώνης - Βάλε μωρό μου χαϊμαλί [Μ. Μπακάλη]
EXTD=
EXTT0=
EXTT1=
EXTT2=
EXTT3=
EXTT4=
EXTT5=
EXTT6=
EXTT7=
EXTT8=
EXTT9=
EXTT10=
EXTT11=
EXTT12=
EXTT13=
EXTT14=
EXTT15=
EXTT16=
EXTT17=
EXTT18=
EXTT19=
EXTT20=
EXTT21=
EXTT22=
EXTT23=
PLAYORDER=
